<svg width="17" height="22" viewBox="0 0 17 22" fill="none" xmlns="http://www.w3.org/2000/svg">
<path d="M9.43552 8.36324C9.24103 8.36324 9.08337 8.52113 9.08337 8.71591C9.08337 8.91068 9.24103 9.06857 9.43552 9.06857H12.3533C12.5478 9.06857 12.7055 8.91068 12.7055 8.71591C12.7055 8.52113 12.5478 8.36324 12.3533 8.36324H9.43552Z" fill="#3663B4"/>
<path d="M9.08337 10.3281C9.08337 10.1333 9.24103 9.97543 9.43552 9.97543H11.649C11.8435 9.97543 12.0012 10.1333 12.0012 10.3281C12.0012 10.5229 11.8435 10.6808 11.649 10.6808H9.43552C9.24103 10.6808 9.08337 10.5229 9.08337 10.3281Z" fill="#3663B4"/>
<path d="M9.43552 12.1922C9.24103 12.1922 9.08337 12.3501 9.08337 12.5449C9.08337 12.7396 9.24103 12.8975 9.43552 12.8975H12.0515C12.246 12.8975 12.4036 12.7396 12.4036 12.5449C12.4036 12.3501 12.246 12.1922 12.0515 12.1922H9.43552Z" fill="#3663B4"/>
<path d="M9.08337 14.1571C9.08337 13.9623 9.24103 13.8044 9.43552 13.8044H11.3472C11.5417 13.8044 11.6993 13.9623 11.6993 14.1571C11.6993 14.3518 11.5417 14.5097 11.3472 14.5097H9.43552C9.24103 14.5097 9.08337 14.3518 9.08337 14.1571Z" fill="#3663B4"/>
<path d="M9.43552 16.0211C9.24103 16.0211 9.08337 16.179 9.08337 16.3738C9.08337 16.5686 9.24103 16.7265 9.43552 16.7265H12.7558C12.9502 16.7265 13.1079 16.5686 13.1079 16.3738C13.1079 16.179 12.9502 16.0211 12.7558 16.0211H9.43552Z" fill="#3663B4"/>
<path d="M9.08337 17.8852C9.08337 17.6905 9.24103 17.5326 9.43552 17.5326H11.9509C12.1453 17.5326 12.303 17.6905 12.303 17.8852C12.303 18.08 12.1453 18.2379 11.9509 18.2379H9.43552C9.24103 18.2379 9.08337 18.08 9.08337 17.8852Z" fill="#3663B4"/>
<path fill-rule="evenodd" clip-rule="evenodd" d="M4.25392 8.66553C4.25392 8.33163 4.5242 8.06096 4.8576 8.06096H6.56803C6.90144 8.06096 7.17171 8.33163 7.17171 8.66553V10.3785C7.17171 10.7124 6.90144 10.9831 6.56803 10.9831H4.8576C4.5242 10.9831 4.25392 10.7124 4.25392 10.3785V8.66553ZM6.30787 9.1276C6.38645 9.2063 6.38645 9.3339 6.30787 9.4126L5.75449 9.96679C5.67591 10.0455 5.5485 10.0455 5.46991 9.96679L5.21838 9.71488C5.1398 9.63618 5.1398 9.50858 5.21838 9.42988C5.29697 9.35119 5.42438 9.35119 5.50296 9.42988L5.6122 9.53929L6.02329 9.1276C6.10187 9.0489 6.22928 9.0489 6.30787 9.1276Z" fill="#3663B4"/>
<path fill-rule="evenodd" clip-rule="evenodd" d="M4.8576 11.8899C4.5242 11.8899 4.25392 12.1606 4.25392 12.4945V14.2074C4.25392 14.5413 4.5242 14.812 4.8576 14.812H6.56803C6.90144 14.812 7.17171 14.5413 7.17171 14.2074V12.4945C7.17171 12.1606 6.90144 11.8899 6.56803 11.8899H4.8576ZM6.30787 13.2416C6.38645 13.1629 6.38645 13.0353 6.30787 12.9566C6.22928 12.8779 6.10187 12.8779 6.02329 12.9566L5.6122 13.3682L5.50296 13.2588C5.42438 13.1801 5.29697 13.1801 5.21838 13.2588C5.1398 13.3375 5.1398 13.4651 5.21838 13.5438L5.46991 13.7957C5.5485 13.8744 5.67591 13.8744 5.75449 13.7957L6.30787 13.2416Z" fill="#3663B4"/>
<path fill-rule="evenodd" clip-rule="evenodd" d="M4.25392 16.3234C4.25392 15.9895 4.5242 15.7189 4.8576 15.7189H6.56803C6.90144 15.7189 7.17171 15.9895 7.17171 16.3234V18.0364C7.17171 18.3703 6.90144 18.641 6.56803 18.641H4.8576C4.5242 18.641 4.25392 18.3703 4.25392 18.0364V16.3234ZM6.30787 16.7855C6.38645 16.8642 6.38645 16.9918 6.30787 17.0705L5.75449 17.6247C5.67591 17.7034 5.5485 17.7034 5.46991 17.6247L5.21838 17.3728C5.1398 17.2941 5.1398 17.1665 5.21838 17.0878C5.29697 17.0091 5.42438 17.0091 5.50296 17.0878L5.6122 17.1972L6.02329 16.7855C6.10187 16.7068 6.22928 16.7068 6.30787 16.7855Z" fill="#3663B4"/>
<path fill-rule="evenodd" clip-rule="evenodd" d="M6.2667 2.41829C6.29348 1.07814 7.38663 0 8.73122 0C10.0758 0 11.169 1.07814 11.1958 2.41829H12.0012C12.3901 2.41829 12.7055 2.73408 12.7055 3.12362V3.52667H14.7177C15.8291 3.52667 16.73 4.42892 16.73 5.54191V19.9509C16.73 21.0638 15.8291 21.9661 14.7177 21.9661H2.64411C1.53276 21.9661 0.631836 21.0638 0.631836 19.9509V5.54191C0.631836 4.42892 1.53276 3.52667 2.64411 3.52667H4.65638V3.12362C4.65638 2.73408 4.9717 2.41829 5.36067 2.41829H6.2667ZM9.48461 2.41829C9.45873 2.02416 9.13132 1.71251 8.73122 1.71251C8.33113 1.71251 8.00372 2.02416 7.97783 2.41829H9.48461ZM4.65638 4.73581V4.232H2.64411C1.92173 4.232 1.33613 4.81847 1.33613 5.54191V19.9509C1.33613 20.6743 1.92173 21.2608 2.64411 21.2608H14.7177C15.4401 21.2608 16.0257 20.6743 16.0257 19.9509V5.54191C16.0257 4.81847 15.4401 4.232 14.7177 4.232H12.7055V4.73581C12.7055 5.12536 12.3901 5.44114 12.0012 5.44114H5.36067C4.9717 5.44114 4.65638 5.12536 4.65638 4.73581Z" fill="#3663B4"/>
</svg>
