<svg width="9" height="9" viewBox="0 0 9 9" fill="none" xmlns="http://www.w3.org/2000/svg">
<path fill-rule="evenodd" clip-rule="evenodd" d="M3.7122 0.306C3.7122 0.137001 3.8492 0 4.0182 0C4.18719 0 4.32419 0.137001 4.32419 0.306V1.08868L5.01132 0.470139C5.13082 0.362566 5.32456 0.362566 5.44406 0.470139C5.56356 0.577712 5.56356 0.752122 5.44406 0.859695L4.36219 1.83359C4.35022 1.84436 4.33751 1.85406 4.32419 1.86267V3.65471L5.6393 2.97122C5.64219 2.95629 5.64628 2.94133 5.65163 2.92644L6.10575 1.66257C6.16238 1.50496 6.33864 1.41515 6.49944 1.46197C6.66024 1.50879 6.74468 1.67451 6.68805 1.83212L6.42559 2.56256L7.58866 1.95809C7.72754 1.88591 7.90863 1.9342 7.99313 2.06595C8.07763 2.1977 8.03354 2.36301 7.89466 2.43519L6.69137 3.06057L7.5726 3.31716C7.72028 3.36015 7.79783 3.51235 7.74582 3.6571C7.69381 3.80185 7.53193 3.88433 7.38426 3.84133L5.97732 3.43168L4.63008 4.13188L6.38212 5.04245L7.73638 4.74267C7.88591 4.70957 8.03983 4.8025 8.08019 4.95023C8.12054 5.09796 8.03205 5.24455 7.88252 5.27765L7.14765 5.44032L7.89457 5.82851C8.03345 5.90069 8.07753 6.06601 7.99303 6.19776C7.90853 6.32951 7.72745 6.3778 7.58857 6.30562L6.63679 5.81095L6.87961 6.69986C6.9239 6.862 6.82677 7.0229 6.66266 7.05922C6.49855 7.09555 6.32961 6.99356 6.28532 6.83142L5.93422 5.54616C5.9245 5.51057 5.92159 5.47504 5.92471 5.44087L4.32419 4.60904V6.2158C4.34758 6.22831 4.3695 6.24385 4.38926 6.26238L5.44669 7.25448C5.5642 7.36473 5.56061 7.53948 5.43866 7.64481C5.31671 7.75014 5.1226 7.74614 5.00508 7.63589L4.32419 6.99708V7.95773C4.32419 8.12673 4.18719 8.26373 4.0182 8.26373C3.8492 8.26373 3.7122 8.12673 3.7122 7.95773V7.10164L3.13212 7.60266C3.0107 7.70753 2.81742 7.70356 2.70042 7.59378C2.58341 7.48401 2.58699 7.31 2.70841 7.20513L3.7122 6.33815V4.60892L2.23085 5.37882L1.83079 6.61961C1.77932 6.77926 1.60602 6.87432 1.44371 6.83191C1.28141 6.78951 1.19157 6.62571 1.24305 6.46605L1.46531 5.77669L0.44749 6.30567C0.308609 6.37785 0.127523 6.32956 0.0430236 6.19781C-0.0414758 6.06606 0.00260963 5.90075 0.141491 5.82857L1.25006 5.25242L0.309558 5.00669C0.161035 4.96789 0.0788208 4.81799 0.125927 4.67189C0.173033 4.52579 0.331621 4.43881 0.480143 4.47761L1.98457 4.87067L3.40608 4.13188L2.01789 3.4104C2.0116 3.4124 2.00518 3.41419 1.99864 3.41577L0.46937 3.78464C0.320325 3.82059 0.164043 3.73061 0.120302 3.58366C0.0765622 3.43671 0.161928 3.28844 0.310973 3.25249L1.26931 3.02134L0.141397 2.43514C0.00251586 2.36296 -0.0415691 2.19764 0.0429304 2.06589C0.12743 1.93414 0.308516 1.88585 0.447397 1.95803L1.48415 2.49686L1.28006 1.8112C1.23215 1.65026 1.32565 1.48787 1.48889 1.44849C1.65213 1.40912 1.8233 1.50767 1.8712 1.66861L2.23369 2.88641L3.7122 3.65483V1.76642L2.70494 0.859695C2.58544 0.752122 2.58544 0.577712 2.70494 0.470139C2.82444 0.362566 3.01819 0.362566 3.13769 0.470139L3.7122 0.987307V0.306Z" fill="#3663b4"/>
</svg>
