<svg width="12" height="16" viewBox="0 0 12 16" fill="none" xmlns="http://www.w3.org/2000/svg">
<path d="M10.3297 5.33333H9.59182V3.80952C9.59182 1.70667 7.93908 0 5.90266 0C3.86624 0 2.2135 1.70667 2.2135 3.80952V5.33333H1.47566C0.664049 5.33333 0 6.01905 0 6.85714V14.4762C0 15.3143 0.664049 16 1.47566 16H10.3297C11.1413 16 11.8053 15.3143 11.8053 14.4762V6.85714C11.8053 6.01905 11.1413 5.33333 10.3297 5.33333ZM5.90266 12.1905C5.09104 12.1905 4.42699 11.5048 4.42699 10.6667C4.42699 9.82857 5.09104 9.14286 5.90266 9.14286C6.71427 9.14286 7.37832 9.82857 7.37832 10.6667C7.37832 11.5048 6.71427 12.1905 5.90266 12.1905ZM8.18994 5.33333H3.61538V3.80952C3.61538 2.50667 4.64096 1.44762 5.90266 1.44762C7.16435 1.44762 8.18994 2.50667 8.18994 3.80952V5.33333Z" fill="#3663B4"/>
</svg>
