<svg width="60" height="43" viewBox="0 0 60 43" fill="none" xmlns="http://www.w3.org/2000/svg">
<path d="M58.8285 18.9518C60.3905 20.1709 60.3905 22.5564 58.8285 23.7755L35.3656 42.0881C33.3878 43.6318 30.5207 42.2045 30.5207 39.6763V33.6722H12.1581C10.8429 33.6722 9.77664 32.5928 9.77664 31.2612C9.77664 29.9297 10.8429 28.8503 12.1581 28.8503H18.9169C18.9201 28.8503 18.9233 28.8503 18.9266 28.8503H39.2319C40.5471 28.8503 41.6134 27.7709 41.6134 26.4393C41.6134 25.1078 40.5471 24.0284 39.2319 24.0284L24.6923 24.0284C23.377 24.0284 22.3108 22.949 22.3108 21.6174C22.3108 20.2892 23.3718 19.2118 24.6826 19.2065H34.2182C35.5335 19.2065 36.5997 18.1271 36.5997 16.7955C36.5997 15.464 35.5335 14.3846 34.2182 14.3846L17.1718 14.3846C15.8565 14.3846 14.7903 13.3052 14.7903 11.9736C14.7903 10.6421 15.8565 9.56268 17.1718 9.56268H30.5207V3.05103C30.5207 0.522808 33.3878 -0.904482 35.3656 0.639166L58.8285 18.9518Z" fill="white"/>
<path d="M12.5341 21.6174C12.5341 20.2859 13.6004 19.2065 14.9156 19.2065H17.4225C18.7377 19.2065 19.804 20.2859 19.804 21.6174C19.804 22.949 18.7377 24.0284 17.4225 24.0284H14.9156C13.6004 24.0284 12.5341 22.949 12.5341 21.6174Z" fill="white"/>
<path d="M5.01366 11.9736C5.01366 10.6421 6.07989 9.5627 7.39515 9.5627H9.90198C11.2172 9.5627 12.2835 10.6421 12.2835 11.9736C12.2835 13.3052 11.2172 14.3846 9.90198 14.3846H7.39515C6.07989 14.3846 5.01366 13.3052 5.01366 11.9736Z" fill="white"/>
<path d="M0 31.2612C0 29.9297 1.06623 28.8503 2.38149 28.8503H4.88832C6.20358 28.8503 7.26981 29.9297 7.26981 31.2612C7.26981 32.5928 6.20358 33.6722 4.88832 33.6722H2.38149C1.06623 33.6722 0 32.5928 0 31.2612Z" fill="white"/>
</svg>
