<svg width="20" height="43" viewBox="0 0 20 43" fill="none" xmlns="http://www.w3.org/2000/svg">
<mask id="path-1-inside-1_67_201" fill="white">
<path fill-rule="evenodd" clip-rule="evenodd" d="M10 0C7.23858 0 5 2.23858 5 5V23.8378C2.01099 25.5669 0 28.7986 0 32.5C0 38.0228 4.47715 42.5 10 42.5C15.5228 42.5 20 38.0228 20 32.5C20 28.7986 17.989 25.5669 15 23.8378V5C15 2.23858 12.7614 0 10 0Z"/>
</mask>
<path d="M5 23.8378L5.50073 24.7034L6 24.4146V23.8378H5ZM15 23.8378H14V24.4146L14.4993 24.7034L15 23.8378ZM6 5C6 2.79086 7.79086 1 10 1V-1C6.68629 -1 4 1.68629 4 5H6ZM6 23.8378V5H4V23.8378H6ZM1 32.5C1 29.17 2.80801 26.2611 5.50073 24.7034L4.49927 22.9722C1.21398 24.8727 -1 28.4272 -1 32.5H1ZM10 41.5C5.02944 41.5 1 37.4706 1 32.5H-1C-1 38.5751 3.92487 43.5 10 43.5V41.5ZM19 32.5C19 37.4706 14.9706 41.5 10 41.5V43.5C16.0751 43.5 21 38.5751 21 32.5H19ZM14.4993 24.7034C17.192 26.2611 19 29.17 19 32.5H21C21 28.4272 18.786 24.8727 15.5007 22.9722L14.4993 24.7034ZM14 5V23.8378H16V5H14ZM10 1C12.2091 1 14 2.79086 14 5H16C16 1.68629 13.3137 -1 10 -1V1Z" fill="#C2C2C2" mask="url(#path-1-inside-1_67_201)"/>
<path fill-rule="evenodd" clip-rule="evenodd" d="M12 20H8V25.7065C5.10851 26.5671 3 29.2456 3 32.4166C3 36.2826 6.13401 39.4166 10 39.4166C13.866 39.4166 17 36.2826 17 32.4166C17 29.2456 14.8915 26.5671 12 25.7065V20Z" fill="#E9E9E9"/>
<rect x="8" y="14" width="4" height="6" fill="#E9E9E9"/>
<rect x="8" y="8" width="4" height="6" fill="#E9E9E9"/>
<path d="M8 5C8 3.89543 8.89543 3 10 3C11.1046 3 12 3.89543 12 5V8H8V5Z" fill="#E9E9E9"/>
<rect x="14" y="9" width="4" height="1" fill="#C2C2C2"/>
<rect x="14" y="11" width="3" height="1" fill="#C2C2C2"/>
<rect x="14" y="13" width="2" height="1" fill="#C2C2C2"/>
</svg>