<svg width="20" height="43" viewBox="0 0 20 43" fill="none" xmlns="http://www.w3.org/2000/svg">
<mask id="path-1-inside-1_73_541" fill="white">
<path fill-rule="evenodd" clip-rule="evenodd" d="M10 0C7.23858 0 5 2.23858 5 5V23.8378C2.01099 25.5669 0 28.7986 0 32.5C0 38.0228 4.47715 42.5 10 42.5C15.5228 42.5 20 38.0228 20 32.5C20 28.7986 17.989 25.5669 15 23.8378V5C15 2.23858 12.7614 0 10 0Z"/>
</mask>
<path d="M5 23.8378L5.50073 24.7034L6 24.4146V23.8378H5ZM15 23.8378H14V24.4146L14.4993 24.7034L15 23.8378ZM6 5C6 2.79086 7.79086 1 10 1V-1C6.68629 -1 4 1.68629 4 5H6ZM6 23.8378V5H4V23.8378H6ZM1 32.5C1 29.17 2.80801 26.2611 5.50073 24.7034L4.49927 22.9722C1.21398 24.8727 -1 28.4272 -1 32.5H1ZM10 41.5C5.02944 41.5 1 37.4706 1 32.5H-1C-1 38.5751 3.92487 43.5 10 43.5V41.5ZM19 32.5C19 37.4706 14.9706 41.5 10 41.5V43.5C16.0751 43.5 21 38.5751 21 32.5H19ZM14.4993 24.7034C17.192 26.2611 19 29.17 19 32.5H21C21 28.4272 18.786 24.8727 15.5007 22.9722L14.4993 24.7034ZM14 5V23.8378H16V5H14ZM10 1C12.2091 1 14 2.79086 14 5H16C16 1.68629 13.3137 -1 10 -1V1Z" fill="#C2C2C2" mask="url(#path-1-inside-1_73_541)"/>
<path fill-rule="evenodd" clip-rule="evenodd" d="M12 20H8V25.7065C5.10851 26.5671 3 29.2456 3 32.4166C3 36.2826 6.13401 39.4166 10 39.4166C13.866 39.4166 17 36.2826 17 32.4166C17 29.2456 14.8915 26.5671 12 25.7065V20Z" fill="#537ECC"/>
<rect x="8" y="14" width="4" height="6" fill="#537ECC"/>
<path d="M7.49 34.41L10.24 31.94C10.38 31.8133 10.52 31.67 10.66 31.51C10.8 31.35 10.87 31.1633 10.87 30.95C10.87 30.71 10.7833 30.5233 10.61 30.39C10.4367 30.25 10.2333 30.18 10 30.18C9.72 30.18 9.5 30.2667 9.34 30.44C9.18667 30.6133 9.1 30.8267 9.08 31.08L7.58 30.97C7.6 30.6033 7.67667 30.2867 7.81 30.02C7.94333 29.7467 8.12 29.52 8.34 29.34C8.56 29.16 8.81667 29.0267 9.11 28.94C9.41 28.8467 9.73333 28.8 10.08 28.8C10.4 28.8 10.7 28.8467 10.98 28.94C11.26 29.0267 11.5033 29.16 11.71 29.34C11.9167 29.5133 12.0767 29.7333 12.19 30C12.31 30.2667 12.37 30.5767 12.37 30.93C12.37 31.1567 12.3467 31.3633 12.3 31.55C12.2533 31.73 12.1867 31.8967 12.1 32.05C12.02 32.1967 11.9233 32.3333 11.81 32.46C11.6967 32.5867 11.5733 32.71 11.44 32.83L9.29 34.68H12.43V36H7.49V34.41Z" fill="white"/>
<rect x="8" y="8" width="4" height="6" fill="#537ECC"/>
<path d="M8 5C8 3.89543 8.89543 3 10 3C11.1046 3 12 3.89543 12 5V8H8V5Z" fill="#537ECC"/>
<rect x="14" y="9" width="4" height="1" fill="#C2C2C2"/>
<rect x="14" y="11" width="3" height="1" fill="#C2C2C2"/>
<rect x="14" y="13" width="2" height="1" fill="#C2C2C2"/>
</svg>
