<svg width="20" height="43" viewBox="0 0 20 43" fill="none" xmlns="http://www.w3.org/2000/svg">
<mask id="path-1-inside-1_73_653" fill="white">
<path fill-rule="evenodd" clip-rule="evenodd" d="M10 0.5C7.23858 0.5 5 2.73858 5 5.5V24.3378C2.01099 26.0669 0 29.2986 0 33C0 38.5228 4.47715 43 10 43C15.5228 43 20 38.5228 20 33C20 29.2986 17.989 26.0669 15 24.3378V5.5C15 2.73858 12.7614 0.5 10 0.5Z"/>
</mask>
<path d="M5 24.3378L5.50073 25.2034L6 24.9146V24.3378H5ZM15 24.3378H14V24.9146L14.4993 25.2034L15 24.3378ZM6 5.5C6 3.29086 7.79086 1.5 10 1.5V-0.5C6.68629 -0.5 4 2.18629 4 5.5H6ZM6 24.3378V5.5H4V24.3378H6ZM1 33C1 29.67 2.80801 26.7611 5.50073 25.2034L4.49927 23.4722C1.21398 25.3727 -1 28.9272 -1 33H1ZM10 42C5.02944 42 1 37.9706 1 33H-1C-1 39.0751 3.92487 44 10 44V42ZM19 33C19 37.9706 14.9706 42 10 42V44C16.0751 44 21 39.0751 21 33H19ZM14.4993 25.2034C17.192 26.7611 19 29.67 19 33H21C21 28.9272 18.786 25.3727 15.5007 23.4722L14.4993 25.2034ZM14 5.5V24.3378H16V5.5H14ZM10 1.5C12.2091 1.5 14 3.29086 14 5.5H16C16 2.18629 13.3137 -0.5 10 -0.5V1.5Z" fill="#C2C2C2" mask="url(#path-1-inside-1_73_653)"/>
<path fill-rule="evenodd" clip-rule="evenodd" d="M12 20.5H8V26.2065C5.10851 27.0671 3 29.7456 3 32.9166C3 36.7826 6.13401 39.9166 10 39.9166C13.866 39.9166 17 36.7826 17 32.9166C17 29.7456 14.8915 27.0671 12 26.2065V20.5Z" fill="#60B40B"/>
<rect x="8" y="14.5" width="4" height="6" fill="#60B40B"/>
<path d="M9.88 31.1L8.46 32.35L7.61 31.37L9.92 29.42H11.32V36.5H9.88V31.1Z" fill="white"/>
<rect x="8" y="8.5" width="4" height="6" fill="#60B40B"/>
<path d="M8 5.5C8 4.39543 8.89543 3.5 10 3.5C11.1046 3.5 12 4.39543 12 5.5V8.5H8V5.5Z" fill="#60B40B"/>
<rect x="14" y="9.5" width="4" height="1" fill="#C2C2C2"/>
<rect x="14" y="11.5" width="3" height="1" fill="#C2C2C2"/>
<rect x="14" y="13.5" width="2" height="1" fill="#C2C2C2"/>
</svg>
