<svg width="20" height="43" viewBox="0 0 20 43" fill="none" xmlns="http://www.w3.org/2000/svg">
<mask id="path-1-inside-1_73_740" fill="white">
<path fill-rule="evenodd" clip-rule="evenodd" d="M10 0C7.23858 0 5 2.23858 5 5V23.8378C2.01099 25.5669 0 28.7986 0 32.5C0 38.0228 4.47715 42.5 10 42.5C15.5228 42.5 20 38.0228 20 32.5C20 28.7986 17.989 25.5669 15 23.8378V5C15 2.23858 12.7614 0 10 0Z"/>
</mask>
<path d="M5 23.8378L5.50073 24.7034L6 24.4146V23.8378H5ZM15 23.8378H14V24.4146L14.4993 24.7034L15 23.8378ZM6 5C6 2.79086 7.79086 1 10 1V-1C6.68629 -1 4 1.68629 4 5H6ZM6 23.8378V5H4V23.8378H6ZM1 32.5C1 29.17 2.80801 26.2611 5.50073 24.7034L4.49927 22.9722C1.21398 24.8727 -1 28.4272 -1 32.5H1ZM10 41.5C5.02944 41.5 1 37.4706 1 32.5H-1C-1 38.5751 3.92487 43.5 10 43.5V41.5ZM19 32.5C19 37.4706 14.9706 41.5 10 41.5V43.5C16.0751 43.5 21 38.5751 21 32.5H19ZM14.4993 24.7034C17.192 26.2611 19 29.17 19 32.5H21C21 28.4272 18.786 24.8727 15.5007 22.9722L14.4993 24.7034ZM14 5V23.8378H16V5H14ZM10 1C12.2091 1 14 2.79086 14 5H16C16 1.68629 13.3137 -1 10 -1V1Z" fill="#C2C2C2" mask="url(#path-1-inside-1_73_740)"/>
<path fill-rule="evenodd" clip-rule="evenodd" d="M12 20H8V25.7065C5.10851 26.5671 3 29.2456 3 32.4166C3 36.2826 6.13401 39.4166 10 39.4166C13.866 39.4166 17 36.2826 17 32.4166C17 29.2456 14.8915 26.5671 12 25.7065V20Z" fill="#AB1515"/>
<path fill-rule="evenodd" clip-rule="evenodd" d="M9.7122 28.306C9.7122 28.137 9.8492 28 10.0182 28C10.1872 28 10.3242 28.137 10.3242 28.306V29.0887L11.0113 28.4701C11.1308 28.3626 11.3246 28.3626 11.4441 28.4701C11.5636 28.5777 11.5636 28.7521 11.4441 28.8597L10.3622 29.8336C10.3502 29.8444 10.3375 29.8541 10.3242 29.8627V31.6547L11.6393 30.9712C11.6422 30.9563 11.6463 30.9413 11.6516 30.9264L12.1058 29.6626C12.1624 29.505 12.3386 29.4152 12.4994 29.462C12.6602 29.5088 12.7447 29.6745 12.688 29.8321L12.4256 30.5626L13.5887 29.9581C13.7275 29.8859 13.9086 29.9342 13.9931 30.0659C14.0776 30.1977 14.0335 30.363 13.8947 30.4352L12.6914 31.0606L13.5726 31.3172C13.7203 31.3602 13.7978 31.5124 13.7458 31.6571C13.6938 31.8018 13.5319 31.8843 13.3843 31.8413L11.9773 31.4317L10.6301 32.1319L12.3821 33.0425L13.7364 32.7427C13.8859 32.7096 14.0398 32.8025 14.0802 32.9502C14.1205 33.098 14.032 33.2445 13.8825 33.2776L13.1477 33.4403L13.8946 33.8285C14.0334 33.9007 14.0775 34.066 13.993 34.1978C13.9085 34.3295 13.7274 34.3778 13.5886 34.3056L12.6368 33.811L12.8796 34.6999C12.9239 34.862 12.8268 35.0229 12.6627 35.0592C12.4986 35.0956 12.3296 34.9936 12.2853 34.8314L11.9342 33.5462C11.9245 33.5106 11.9216 33.475 11.9247 33.4409L10.3242 32.609V34.2158C10.3476 34.2283 10.3695 34.2438 10.3893 34.2624L11.4467 35.2545C11.5642 35.3647 11.5606 35.5395 11.4387 35.6448C11.3167 35.7501 11.1226 35.7461 11.0051 35.6359L10.3242 34.9971V35.9577C10.3242 36.1267 10.1872 36.2637 10.0182 36.2637C9.8492 36.2637 9.7122 36.1267 9.7122 35.9577V35.1016L9.13212 35.6027C9.0107 35.7075 8.81742 35.7036 8.70042 35.5938C8.58341 35.484 8.58699 35.31 8.70841 35.2051L9.7122 34.3382V32.6089L8.23085 33.3788L7.83079 34.6196C7.77932 34.7793 7.60602 34.8743 7.44371 34.8319C7.28141 34.7895 7.19157 34.6257 7.24305 34.466L7.46531 33.7767L6.44749 34.3057C6.30861 34.3779 6.12752 34.3296 6.04302 34.1978C5.95852 34.0661 6.00261 33.9007 6.14149 33.8286L7.25006 33.2524L6.30956 33.0067C6.16104 32.9679 6.07882 32.818 6.12593 32.6719C6.17303 32.5258 6.33162 32.4388 6.48014 32.4776L7.98457 32.8707L9.40608 32.1319L8.01789 31.4104C8.0116 31.4124 8.00518 31.4142 7.99864 31.4158L6.46937 31.7846C6.32033 31.8206 6.16404 31.7306 6.1203 31.5837C6.07656 31.4367 6.16193 31.2884 6.31097 31.2525L7.26931 31.0213L6.1414 30.4351C6.00252 30.363 5.95843 30.1976 6.04293 30.0659C6.12743 29.9341 6.30852 29.8859 6.4474 29.958L7.48415 30.4969L7.28006 29.8112C7.23215 29.6503 7.32565 29.4879 7.48889 29.4485C7.65213 29.4091 7.8233 29.5077 7.8712 29.6686L8.23369 30.8864L9.7122 31.6548V29.7664L8.70494 28.8597C8.58544 28.7521 8.58544 28.5777 8.70494 28.4701C8.82444 28.3626 9.01819 28.3626 9.13769 28.4701L9.7122 28.9873V28.306Z" fill="white"/>
<rect x="8" y="14" width="4" height="6" fill="#AB1515"/>
<rect x="8" y="8" width="4" height="6" fill="#AB1515"/>
<path d="M8 5C8 3.89543 8.89543 3 10 3C11.1046 3 12 3.89543 12 5V8H8V5Z" fill="#AB1515"/>
<rect x="14" y="9" width="4" height="1" fill="#C2C2C2"/>
<rect x="14" y="11" width="3" height="1" fill="#C2C2C2"/>
<rect x="14" y="13" width="2" height="1" fill="#C2C2C2"/>
</svg>
